<?xml version="1.0" encoding="iso-8859-1"?>
<!-- Generator: Adobe Illustrator 19.0.0, SVG Export Plug-In . SVG Version: 6.00 Build 0)  -->
<svg version="1.1" id="Capa_1" xmlns="http://www.w3.org/2000/svg" xmlns:xlink="http://www.w3.org/1999/xlink" x="0px" y="0px"
	 viewBox="0 0 512 512" style="enable-background:new 0 0 512 512;" xml:space="preserve">
<path style="fill:#91CECE;" d="M512,512V300.138h-79.448l3.699-11.096c5.57-16.64-3.399-34.648-20.047-40.227
	c-3.266-1.095-6.691-1.651-10.134-1.642l0,0c-17.549-0.026-31.797,14.186-31.823,31.735c-0.009,3.443,0.547,6.868,1.642,10.134
	l3.699,11.096h-79.448v79.448l11.096-3.699c16.64-5.57,34.648,3.399,40.227,20.047c1.095,3.266,1.651,6.691,1.642,10.134l0,0
	c0.026,17.549-14.186,31.797-31.735,31.823c-3.443,0.009-6.868-0.547-10.134-1.642l-11.096-3.699V512H512z"/>
<path style="fill:#383856;" d="M300.138,300.138v79.448l11.096-3.699c16.64-5.57,34.648,3.399,40.227,20.047
	c1.095,3.266,1.651,6.691,1.642,10.134l0,0c0.026,17.549-14.186,31.797-31.735,31.823c-3.443,0.009-6.868-0.547-10.134-1.642
	l-11.096-3.699V512H88.276V300.138h79.448l-3.699,11.096c-5.57,16.64,3.399,34.648,20.047,40.227
	c3.266,1.095,6.691,1.651,10.134,1.642l0,0c17.549,0.026,31.797-14.186,31.823-31.735c0.009-3.443-0.547-6.868-1.642-10.134
	l-3.699-11.096H300.138z"/>
<path style="fill:#EA3836;" d="M512,300.138h-79.448l3.699-11.096c5.57-16.64-3.399-34.648-20.047-40.227
	c-3.266-1.095-6.691-1.651-10.134-1.642l0,0c-17.549-0.026-31.797,14.186-31.823,31.735c-0.009,3.443,0.547,6.868,1.642,10.134
	l3.699,11.096h-79.448V220.69l11.096,3.699c16.64,5.57,34.648-3.399,40.227-20.047c1.095-3.266,1.651-6.691,1.642-10.134l0,0
	c0.026-17.549-14.186-31.797-31.735-31.823c-3.443-0.009-6.868,0.547-10.134,1.642l-11.096,3.699V88.276H512V300.138z"/>
<path style="fill:#FFD33F;" d="M0,0v211.862h79.448l-3.699,11.096c-5.57,16.64,3.399,34.648,20.047,40.227
	c3.266,1.095,6.691,1.651,10.134,1.642l0,0c17.549,0.026,31.797-14.186,31.823-31.735c0.009-3.443-0.547-6.868-1.642-10.134
	l-3.699-11.096h79.448v-79.448l11.096,3.699c16.64,5.57,34.648-3.399,40.227-20.047c1.095-3.266,1.651-6.691,1.642-10.134l0,0
	c0.026-17.549-14.186-31.797-31.735-31.823c-3.443-0.009-6.868,0.547-10.134,1.642l-11.096,3.699V0H0z"/>
<path style="fill:#91CECE;" d="M300.138,435.73l3.531-1.995l-3.531-1.183V435.73z"/>
<path style="fill:#83B2B7;" d="M352.918,403.076c0.097,0.989,0.185,1.977,0.185,2.993c0.026,17.549-14.186,31.797-31.735,31.823
	c-3.443,0.009-6.868-0.547-10.134-1.642l-7.548-2.516l-3.531,1.995V512H512V300.138h-46.062
	C433.699,339.977,395.591,374.687,352.918,403.076z"/>
<path style="fill:#383856;" d="M311.234,436.25c16.64,5.57,34.648-3.399,40.227-20.047c1.095-3.266,1.651-6.691,1.642-10.134
	c0-1.015-0.088-2.004-0.185-2.993c-16.243,11.087-32.768,21.301-49.231,30.658L311.234,436.25z"/>
<path style="fill:#202033;" d="M120.002,512h180.136v-76.27C242.935,467.403,182.554,492.968,120.002,512z"/>
<path style="fill:#D62121;" d="M465.938,300.138H512v-76.094C499.933,251.26,484.449,276.824,465.938,300.138z"/>
<path style="fill:#FFAC3E;" d="M211.862,19.147V0H0v141.074C32.335,101.199,97.483,42.611,211.862,19.147z"/>
<g>
</g>
<g>
</g>
<g>
</g>
<g>
</g>
<g>
</g>
<g>
</g>
<g>
</g>
<g>
</g>
<g>
</g>
<g>
</g>
<g>
</g>
<g>
</g>
<g>
</g>
<g>
</g>
<g>
</g>
</svg>
